<?xml version="1.0" encoding="utf-8"?>
<!-- Generator: Adobe Illustrator 26.0.0, SVG Export Plug-In . SVG Version: 6.00 Build 0)  -->
<svg version="1.1" id="Layer_1" xmlns="http://www.w3.org/2000/svg" xmlns:xlink="http://www.w3.org/1999/xlink" x="0px" y="0px"
	 viewBox="0 0 500 500" style="enable-background:new 0 0 500 500;" xml:space="preserve">
<style type="text/css">
	.st0{fill:#E099DF;}
</style>
<path class="st0" d="M465.11,75.8c-14.69-22.93-49.42-36.92-86.1-19.79c-43.35,20.24-41.95,75.1-30.78,114.69
	c11.17,39.6,57.55,97.63,65.25,136.36c5.31,26.72-11.76,67-43.04,94.01c0.09-14.25,2.62-45.09-7.45-99.71
	c-12.92-70.16-39.23-101.78-70.16-120.47s-60.33-12.77-82.06-18.29c-21.72-5.52-21.1-44.41-33.85-73.42
	C164.7,61.35,150.1,51.8,138.49,43.05s-15.92-12.64-21.29-16.96c-5.37-4.33-18.69-13.85-20.94-13.67c-2.25,0.17-2.25,4.67-3.46,5.37
	c-1.21,0.69-5.37-4.85-7.44-6.58c-2.08-1.73-5.88-4.5-7.1-1.73c-1.21,2.77,8.31,24.23,6.92,26.83c-1.38,2.6-3.12,2.6-12.81,5.37
	S48.48,60.03,44.68,65.05c-3.81,5.02-7.27,21.12-9.35,24.58c-2.08,3.46-6.75,8.48-8.65,10.39c-1.9,1.9-3.46,5.37-3.63,9
	c-0.17,3.63,1.73,6.23,3.29,7.44c1.56,1.21,0.17,4.33,1.73,7.1s3.81,4.33,5.19,5.37c1.38,1.04-0.87,3.46,3.98,9
	s26.43,6.52,32.19,12.52c5.77,6,4.62,20.77,4.38,28.85c-0.23,8.08-10.39,25.85-11.31,41.08c-0.92,15.23,18.46,57.7,29.08,69.01
	s26.54,46.62,26.31,54.47s-4.38,25.16-6.69,34.39c-2.31,9.23-4.15,34.16-6.23,36.23c-2.08,2.08-14.77,4.15-18.92,7.62
	c-4.15,3.46-4.85,10.38-0.46,18c4.38,7.62,12.92,6.46,12.92,6.46s-4.15,3.12-6.23,7.62s-1.04,12.46,3.81,14.89
	c4.85,2.42,28.39,4.15,35.66,3.46s10.73-2.77,16.27-8.65c5.54-5.89,6.58-19.73,7.96-21.12c1.38-1.38,10.39,2.77,18.35,3.12
	c7.96,0.34,28.39,1.38,28.39,1.38l4.15,3.46c0,0-10.04,6.23-12.12,15.23s2.08,15,10.85,18.23s26.31-0.92,31.85-3.23
	c5.54-2.31,11.08,1.39,24.46,1.39c13.39,0,43.85-5.54,63.7-6.46c19.85-0.92,13.85-3.23,18-6.92s7.38-2.31,19.39-12.46
	c3.03-2.56,5.26-6.38,6.85-10.78c3.74-1.66,7.48-3.47,11.21-5.44c50.12-26.6,112.6-107.79,20.63-234.71
	c-25.5-35.2-33.1-81.4-22.7-103.26c10.4-21.87,39.32-27.77,59.25-11.23s12.55,37.49,5.94,43.34c-6.61,5.85-36.62,9.18-25.36,31.26
	c5.74,11.25,32.87,4.2,47.76-16.92C481.47,127.59,479.8,98.74,465.11,75.8z"/>
</svg>
