<?xml version="1.0" encoding="utf-8"?>
<!-- Generator: Adobe Illustrator 26.0.0, SVG Export Plug-In . SVG Version: 6.00 Build 0)  -->
<svg version="1.1" id="icon-0" xmlns:svgjs="http://svgjs.dev/svgjs"
	 xmlns="http://www.w3.org/2000/svg" xmlns:xlink="http://www.w3.org/1999/xlink" x="0px" y="0px" viewBox="0 0 1000 999"
	 style="enable-background:new 0 0 1000 999;" xml:space="preserve">
<style type="text/css">
	.st0{fill:#FFCCEA;}
	.st1{fill:#FFFFFF;}
	.st2{display:none;fill:none;}
</style>
<g transform="matrix(1,0,0,1,-0.215743440233382,-0.21552769679306039)">
	<g id="tight-bounds" transform="matrix(1,0,0,1,0.0740000000000407,0.07400000000001228)">
		<g>
			<g>
				<path class="st0" d="M0.6,499.4C0.6,223.7,224.2,0.1,499.9,0.1s499.3,223.5,499.3,499.3S775.7,998.7,499.9,998.7
					S0.6,775.2,0.6,499.4z M499.9,988.3c270,0,488.9-218.9,488.9-488.9S769.9,10.5,499.9,10.5S11,229.4,11,499.4
					S229.9,988.3,499.9,988.3L499.9,988.3z"/>
				<ellipse class="st0" cx="499.9" cy="499.4" rx="479.3" ry="479.3"/>
			</g>
			<g transform="matrix(1,0,0,1,64.84655864529837,79.57375129982324)">
				<g>
					<g>
						<g transform="matrix(1,0,0,1,0,110.49559230398502)">
							<g id="textblocktransform">
								<g>
									<g transform="matrix(1,0,0,1,0,0)">
										<path id="text-0" class="st1" d="M140.3,420.2l-2.6,33.7h-13l6.6-86h15.6l11.5,31.4c2,5.4,4.1,11,6.1,17
											c2,6,3.6,10.7,4.6,14l0,0l1.7,5c3.9-11.6,8.2-23.6,12.9-36l0,0l12-31.4h15.6l7.9,86h-13l-3.1-33.7l-2.7-34.5
											c-3.8,10.8-8,22.3-12.5,34.5l0,0l-12,32h-10.3l-11.6-32l-11.6-34C142.3,390,141.6,401.3,140.3,420.2L140.3,420.2z
											 M284.4,439.2v11.2c-4.8,2.7-11.1,4.1-18.9,4.1l0,0c-10,0-18-3-24-9.1s-8.9-14-8.9-23.7l0,0c0-10.4,2.7-18.5,8.2-24.5
											c5.4-5.9,12.4-8.9,20.8-8.9l0,0c8.3,0,14.8,2.6,19.7,7.7c4.9,5.2,7.3,12.6,7.3,22.3l0,0c0,2.6-0.3,5.4-0.8,8.3l0,0h-42.5
											c0.9,5.6,3.2,9.9,7.1,12.9c3.9,3,8.8,4.5,14.8,4.5l0,0C274,444.1,279.8,442.5,284.4,439.2L284.4,439.2z M261.8,398.8
											L261.8,398.8c-4.3,0-7.9,1.5-11,4.6c-3.1,3.1-5,7.6-5.7,13.5l0,0h31.3v-2.3c-0.2-4.9-1.5-8.7-4-11.6
											C269.9,400.2,266.4,398.8,261.8,398.8z M353,397.7c5.4,6.3,8,14.2,8,23.9c0,9.7-2.7,17.7-8.2,24c-5.5,6.3-13,9.4-22.6,9.4
											l0,0c-9.5,0-17-3.1-22.5-9.3s-8.2-14.1-8.2-23.6l0,0c0-9.7,2.8-17.8,8.4-24.2c5.6-6.4,13-9.6,22.2-9.6l0,0
											C340.1,388.3,347.7,391.4,353,397.7z M312.6,421.7L312.6,421.7c0,6.4,1.6,11.8,4.7,16.1c3.1,4.4,7.4,6.6,12.9,6.6l0,0
											c5.8,0,10.2-2.1,13.2-6.4c3-4.3,4.5-9.7,4.5-16.2l0,0c0-6.7-1.4-12.2-4.3-16.5c-2.9-4.3-7.4-6.4-13.5-6.4l0,0
											c-5.5,0-9.8,2.2-12.9,6.6C314.1,409.8,312.6,415.3,312.6,421.7z M409,432.7l-5.9,21.2H389l-20.3-64.7H382l6,21.4
											c2,6.8,3.6,12.8,5,18c1.4,5.2,2.2,8.7,2.6,10.5l0,0l0.5,2.7c1.1-5.4,3.9-15.8,8.4-31.3l0,0l6.3-21.3h12.1l6.4,21.3
											c2,7.1,3.8,13.2,5.2,18.4c1.4,5.2,2.4,8.7,2.8,10.4l0,0l0.5,2.6c1-5,3.9-15.5,8.7-31.4l0,0l6.4-21.3h12.6l-20.5,64.7
											h-14.3l-6-21.2c-1.8-6.5-3.3-12.2-4.6-17.2c-1.3-5-2.2-8.3-2.6-10.1l0,0l-0.5-2.6C415.6,408.4,413,418.3,409,432.7
											L409,432.7z M528.1,430.4L528.1,430.4c0,7.6-2.7,13.5-8,17.9c-5.4,4.3-12.3,6.5-20.8,6.5l0,0c-9.4,0-17.3-1.8-23.5-5.5
											l0,0v-13.7c6.7,5,14.5,7.5,23.4,7.5l0,0c4.7,0,8.4-1.1,11.1-3.3c2.7-2.2,4.1-5.2,4.1-9l0,0c0-2.3-0.8-4.4-2.4-6.3
											c-1.6-1.9-3.4-3.4-5.2-4.3c-1.9-1-4.7-2.3-8.4-4l0,0c-2.2-1-3.8-1.7-4.6-2.2c-0.9-0.4-2.4-1.2-4.4-2.3
											c-2-1.1-3.5-2-4.5-2.8c-1-0.8-2.2-1.8-3.7-3.2c-1.4-1.4-2.5-2.7-3.1-4.1c-0.6-1.4-1.2-3-1.8-4.8c-0.6-1.8-0.8-3.8-0.8-5.9
											l0,0c0-7.3,2.7-13.1,8-17.4c5.3-4.3,12.2-6.4,20.6-6.4l0,0c7.7,0,14.3,1.4,19.8,4.1l0,0v13c-5.7-3.6-12.2-5.4-19.4-5.4
											l0,0c-4.7,0-8.4,1-11,3.1c-2.7,2.1-4,4.8-4,8.2s1.3,6.1,4,8.2c2.6,2,6.7,4.3,12.1,6.6l0,0c3.6,1.5,6.4,2.9,8.4,4
											c2,1.1,4.3,2.7,6.9,4.6c2.6,2,4.5,4.4,5.7,7.1C527.5,423.7,528.1,426.8,528.1,430.4z M596.7,410.5v43.4h-12.5v-40.8
											c0-4.4-1.1-7.9-3.4-10.3c-2.2-2.4-5.2-3.6-8.9-3.6l0,0c-4.3,0-8,1.6-11.3,4.9c-3.3,3.2-4.9,8.2-4.9,14.8l0,0v35.1h-12.5
											v-90.2h12.5v36.6c3.7-8,10.3-12,20-12l0,0c6.3,0,11.4,2,15.2,5.9C594.8,398.1,596.7,403.5,596.7,410.5L596.7,410.5z
											 M663.4,397.7c5.4,6.3,8,14.2,8,23.9s-2.7,17.7-8.2,24c-5.5,6.3-13,9.4-22.6,9.4l0,0c-9.5,0-17-3.1-22.5-9.3
											c-5.4-6.2-8.2-14.1-8.2-23.6l0,0c0-9.7,2.8-17.8,8.4-24.2c5.6-6.4,13-9.6,22.2-9.6l0,0
											C650.4,388.3,658.1,391.4,663.4,397.7z M623,421.7L623,421.7c0,6.4,1.6,11.8,4.7,16.1c3.1,4.4,7.4,6.6,12.9,6.6l0,0
											c5.8,0,10.2-2.1,13.2-6.4c3-4.3,4.5-9.7,4.5-16.2l0,0c0-6.7-1.4-12.2-4.3-16.5c-2.9-4.3-7.4-6.4-13.5-6.4l0,0
											c-5.5,0-9.8,2.2-12.9,6.6C624.5,409.8,623,415.3,623,421.7z M698,444.1v34.6h-12.5v-89.5H698v10
											c4.4-7.2,11.1-10.8,19.9-10.8l0,0c8.5,0,15.2,3.1,20.2,9.2c4.9,6.2,7.4,14,7.4,23.6l0,0c0,9.8-2.5,17.8-7.6,24.2
											c-5.1,6.3-11.8,9.5-20.2,9.5l0,0C709,454.8,702.5,451.2,698,444.1L698,444.1z M698,421.3L698,421.3
											c0,7.5,1.8,13.1,5.3,16.8c3.5,3.7,7.5,5.6,12,5.6l0,0c5,0,9.1-2,12.4-5.9c3.2-3.9,4.9-9.5,4.9-16.6l0,0
											c0-6.7-1.6-12.1-4.7-16c-3.1-4-7.1-5.9-12-5.9c-4.9,0-9,1.8-12.6,5.3C699.8,408.1,698,413.7,698,421.3z"/>
									</g>
								</g>
								<g transform="matrix(1,0,0,1,0,48.80664269980836)">
									<g transform="matrix(1,0,0,1,0,0)">
										<path id="text-1" class="st1" d="M239.4,466.7h-13.3l-0.1-3.3h11.5c3.5,0,6.2-0.8,8.1-2.3c1.9-1.5,2.9-3.7,2.9-6.7l0,0
											c0-3-0.9-5.2-2.8-6.7c-1.9-1.4-4.8-2.2-8.5-2.2l0,0h-10v43.8h-4v-47.2H237c4.8,0,8.6,1,11.3,2.9c2.7,2,4.1,5.1,4.1,9.4
											l0,0c0,1.9-0.4,3.7-1.3,5.3c-0.9,1.6-2.1,2.8-3.7,3.8c-1.6,1-3.5,1.6-5.7,1.8l0,0L239.4,466.7z M239.1,489.4h-14.3l2-3.4
											h12.2c3.5,0,6.2-0.9,8.2-2.6c2-1.8,2.9-4.2,2.9-7.2l0,0c0-1.8-0.4-3.4-1.2-4.9s-2-2.6-3.5-3.4c-1.6-0.8-3.6-1.2-6.1-1.2
											l0,0h-8.3l0.1-3.3h11.7l0.7,1.2c2.1,0.2,4,0.9,5.6,1.9c1.6,1.1,2.8,2.5,3.7,4.1c0.9,1.7,1.3,3.5,1.3,5.5l0,0
											c0,4.3-1.4,7.6-4.2,9.9C247.2,488.3,243.6,489.4,239.1,489.4L239.1,489.4z M284.5,442.2l14.3,25.8l14.4-25.8h4.6l-17,29.4
											v17.8h-4v-17.8l-17-29.4H284.5z M386.2,442.2l14.3,25.8l14.4-25.8h4.6l-17,29.4v17.8h-4v-17.8l-17-29.4H386.2z M461.1,445
											l-16.4,44.4h-4.1l17.8-47.2h2.9L461.1,445z M475.9,489.4L459.5,445l-0.2-2.8h2.9l17.9,47.2H475.9z M473,472.8v3.4h-25.1
											v-3.4H473z M536.7,477.8L536.7,477.8c0-1.8-0.4-3.2-1.2-4.5c-0.8-1.2-2.1-2.3-4-3.3c-1.9-1-4.5-1.9-7.7-2.8l0,0
											c-2.4-0.7-4.5-1.4-6.4-2.2c-1.9-0.8-3.5-1.7-4.9-2.8c-1.4-1-2.4-2.3-3.1-3.7c-0.7-1.4-1.1-3-1.1-4.9l0,0
											c0-2.4,0.7-4.6,2-6.4c1.3-1.8,3.2-3.2,5.6-4.3c2.4-1,5.1-1.5,8.2-1.5l0,0c3.3,0,6.2,0.6,8.6,1.9c2.4,1.3,4.3,2.9,5.6,5.1
											c1.3,2.1,2,4.5,2,7.1l0,0h-4c0-2-0.5-3.9-1.4-5.5c-1-1.6-2.3-2.9-4.2-3.8c-1.8-0.9-4-1.4-6.6-1.4l0,0
											c-2.6,0-4.8,0.4-6.5,1.2c-1.8,0.8-3.1,1.8-4,3.2s-1.3,2.8-1.3,4.3l0,0c0,1.5,0.4,2.8,1.2,4c0.8,1.2,2.1,2.3,4,3.3
											c1.9,1,4.4,1.9,7.5,2.8l0,0c3.3,0.9,6.2,1.9,8.5,3.1c2.3,1.2,4.1,2.7,5.3,4.4c1.2,1.8,1.8,3.9,1.8,6.5l0,0
											c0,2.6-0.7,4.8-2.1,6.6c-1.4,1.9-3.3,3.3-5.8,4.3c-2.4,1-5.2,1.5-8.4,1.5l0,0c-2.1,0-4.2-0.3-6.3-0.8
											c-2.1-0.5-4-1.4-5.7-2.5c-1.7-1.1-3.1-2.6-4.1-4.4c-1-1.8-1.5-3.9-1.5-6.4l0,0h4c0,2,0.4,3.7,1.2,5
											c0.8,1.4,1.9,2.5,3.2,3.3c1.3,0.8,2.8,1.5,4.4,1.8c1.6,0.4,3.2,0.6,4.8,0.6l0,0c2.5,0,4.6-0.4,6.4-1.1
											c1.8-0.8,3.2-1.8,4.3-3.1C536.2,481.1,536.7,479.6,536.7,477.8z M604,463.4v3.4h-28.7v-3.4H604z M576.3,442.2v47.2h-4
											v-47.2H576.3z M607.2,442.2v47.2h-4v-47.2H607.2z M647,442.2v47.2h-4v-47.2H647z"/>
									</g>
								</g>
							</g>
						</g>
						<path class="st1" d="M626.1,106c-12.5-19.5-42-31.4-73.2-16.8c-36.9,17.2-35.7,63.9-26.2,97.6c9.5,33.7,49,83,55.5,116
							c4.5,22.7-10,57-36.6,80c0.1-12.1,2.2-38.4-6.3-84.8c-11-59.7-33.4-86.6-59.7-102.5s-51.3-10.9-69.8-15.6
							c-18.5-4.7-17.9-37.8-28.8-62.5c-10.4-23.7-22.8-31.8-32.7-39.2c-9.9-7.4-13.5-10.8-18.1-14.4c-4.6-3.7-15.9-11.8-17.8-11.6
							c-1.9,0.1-1.9,4-2.9,4.6c-1,0.6-4.6-4.1-6.3-5.6c-1.8-1.5-5-3.8-6-1.5c-1,2.4,7.1,20.6,5.9,22.8c-1.2,2.2-2.7,2.2-10.9,4.6
							c-8.2,2.4-20.3,15.6-23.6,19.9c-3.2,4.3-6.2,18-8,20.9c-1.8,2.9-5.7,7.2-7.4,8.8c-1.6,1.6-2.9,4.6-3.1,7.7
							c-0.1,3.1,1.5,5.3,2.8,6.3c1.3,1,0.1,3.7,1.5,6c1.3,2.4,3.2,3.7,4.4,4.6s-0.7,2.9,3.4,7.7c4.1,4.7,22.5,5.5,27.4,10.6
							c4.9,5.1,3.9,17.7,3.7,24.5c-0.2,6.9-8.8,22-9.6,34.9c-0.8,13,15.7,49.1,24.7,58.7c9,9.6,22.6,39.7,22.4,46.3
							c-0.2,6.7-3.7,21.4-5.7,29.3c-2,7.9-3.5,29.1-5.3,30.8c-1.8,1.8-12.6,3.5-16.1,6.5c-3.5,2.9-4.1,8.8-0.4,15.3
							c3.7,6.5,11,5.5,11,5.5s-3.5,2.7-5.3,6.5c-1.8,3.8-0.9,10.6,3.2,12.7c4.1,2.1,24.1,3.5,30.3,2.9c6.2-0.6,9.1-2.4,13.8-7.4
							c4.7-5,5.6-16.8,6.8-18c1.2-1.2,8.8,2.4,15.6,2.7c6.8,0.3,24.1,1.2,24.1,1.2l3.5,2.9c0,0-8.5,5.3-10.3,13s1.8,12.8,9.2,15.5
							s22.4-0.8,27.1-2.7c4.7-2,9.4,1.2,20.8,1.2c11.4,0,37.3-4.7,54.2-5.5c16.9-0.8,11.8-2.7,15.3-5.9s6.3-2,16.5-10.6
							c2.6-2.2,4.5-5.4,5.8-9.2c3.2-1.4,6.4-3,9.5-4.6c42.6-22.6,95.8-91.7,17.5-199.7c-21.7-29.9-28.2-69.2-19.3-87.8
							c8.8-18.6,33.4-23.6,50.4-9.6s10.7,31.9,5.1,36.9c-5.6,5-31.2,7.8-21.6,26.6c4.9,9.6,28,3.6,40.6-14.4
							C640,150,638.6,125.5,626.1,106z"/>
					</g>
				</g>
			</g>
		</g>
		<rect x="0.6" y="0.1" class="st2" width="998.6" height="998.6"/>
	</g>
</g>
</svg>
